Gatunekramat/Western
Produkcja:USA
Premiera:18 stycznia 2013 (Polska) 25 grudnia 2012 (świat)
Reżyseria:Quentin Tarantino
Scenariusz:Quentin Tarantino

Opis filmu

Łowca nagród Schultz i czarnoskóry niewolnik Django wyruszają w podróż, aby odbić żonę tego drugiego z rąk bezlitosnego Calvina Candiego.

Dane techniczne

Format : AVI
Format/Info : Audio Video Interleave
File size : 2.25 GiB
Duration : 2h 45mn
Overall bit rate : 1 945 Kbps
Video #0
ID : 0
Format : MPEG-4 Visual
Format profile : Advanced Simple@L5
Format settings, BVOP : 2
Format settings, QPel : No
Format settings, GMC : No warppoints
Format settings, Matrix : Default (H.263)
Codec ID : XVID
Codec ID/Hint : XviD
Duration : 2h 45mn
Bit rate : 1 488 Kbps
Width : 720 pixels
Height : 304 pixels
Display aspect ratio : 2.35:1
Frame rate : 23.976 fps
Color space : YUV
Chroma subsampling : 4:2:0
Bit depth : 8 bits
Scan type : Progressive
Compression mode : Lossy
Bits/(Pixel*Frame) : 0.284
Stream size : 1.72 GiB (76%)
Writing library : XviD 64
Audio #1
ID : 1
Format : AC-3
Format/Info : Audio Coding 3
Mode extension : CM (complete main)
Format settings, Endianness : Big
Codec ID : 2000
Duration : 2h 45mn
Source duration : 2h 45mn
Bit rate mode : Constant
Bit rate : 448 Kbps
Channel(s) : 6 channels
Channel positions : Front: L C R, Side: L R, LFE
Sampling rate : 48.0 KHz
Bit depth : 16 bits
Compression mode : Lossy
Stream size : 530 MiB (23%)
Alignment : Aligned on interleaves
Interleave, duration : 42 ms (1.00 video frame)


Napisy polskie wtopione